<?xml version="1.0" ?>
<!-- Uploaded to: SVG Repo, www.svgrepo.com, Generator: SVG Repo Mixer Tools -->
<svg fill="#000000" width="800px" height="800px" viewBox="0 0 512 512" id="Layer_1" version="1.1" xml:space="preserve" xmlns="http://www.w3.org/2000/svg" xmlns:xlink="http://www.w3.org/1999/xlink">
<g id="_x39__x2C__delivery_x2C__time_x2C__baby_x2C__birth_x2C__child">
<g>
<path d="M367.5,87.5c-2.9,5.1-5.5,10.5-8.4,15.7c-1.2,2.1-2.4,4.1-3.8,6c-1.2,1.6-2.1,3.4-4.2,3.8c-1.6,0.4-3.2-0.2-4.4-1.2    c-1.9-1.8-1.6-4.2-0.5-6.3c1-1.9,1.7-3.9,2.8-5.8c3.2-5.8,7-11.2,10.3-16.9c-8.1-4.5-16.5-8.4-25.1-11.8    c-17.9-6.9-36.6-11.5-55.7-13.5c-5.9-0.6-11.8-0.9-17.7-1.1c0,7.1,0.7,14.1,0.5,21.2c0,1.5-0.1,2.9-0.4,4.4    c-0.2,1.1,0,2.1-0.5,3.2c-0.8,1.7-2.3,2.6-4.1,2.9c-0.2,0-0.5,0-0.7,0c-1.8-0.2-3.3-1.1-4.1-2.9c-0.5-1-0.3-2.1-0.5-3.2    c-0.2-1.5-0.3-2.9-0.4-4.4c-0.2-7.1,0.5-14.1,0.5-21.2c-13.6,0.3-27.2,1.9-40.6,4.7c-13,2.8-25.8,6.8-38,12    c-6.8,2.9-13.4,6.1-19.9,9.6c3,5.2,6.4,10.2,9.5,15.4c1.2,2.1,2.4,4.2,3.3,6.4c0.8,2,1.8,3.6,0.9,5.8c-0.7,1.5-2.1,2.6-3.8,2.8    c-1.1,0.1-2.2-0.1-3.2-0.7c-0.9-0.5-1.3-1.3-1.9-2.1c-1.2-1.8-2.5-3.4-3.6-5.2c-3.4-5.7-6.2-11.8-9.5-17.5    c-5.7,3.6-11.3,7.2-16.7,11.3c-5.2,3.9-10.4,8-15.2,12.5c-5.1,4.7-10,9.5-14.7,14.5c-4.5,4.8-8.8,10-12.8,15.3    c-4,5.3-7.8,10.8-11.4,16.4c-0.4,0.7-0.9,1.4-1.3,2.2c5.2,3,10.6,5.6,15.8,8.5c2.1,1.2,4.1,2.4,6,3.8c1.5,1.2,3.3,2.1,3.8,4.2    c0.3,1.5-0.2,3.3-1.3,4.4c-1.8,1.7-4,1.7-6.1,0.6c-0.8-0.4-1.7-0.7-2.5-1.1c-1.1-0.5-2.1-1-3.2-1.6c-5.9-3.2-11.4-7.1-17.2-10.5    C61.2,179.4,56,191.5,51.9,204c-4.2,12.8-7.2,26-8.9,39.3c-1,7.7-1.6,15.4-1.7,23.1c5.8,0,11.7-0.4,17.5-0.5c2.6,0,5.2,0,7.7,0.4    c2.1,0.3,4.1,0.2,5.5,2.2c0.8,1.2,1.1,2.6,0.7,4c-0.7,2.4-2.7,3.5-5,3.6c-0.9,0-1.9,0.2-2.8,0.3c-1.3,0.1-2.6,0.2-3.8,0.2    c-6.6,0.1-13.2-0.5-19.8-0.5c0.3,13.6,1.9,27.2,4.8,40.6c2.8,13,6.8,25.8,12,38c2.9,6.8,6.1,13.4,9.6,19.9    c5.2-3,10.1-6.4,15.3-9.4c2.1-1.2,4.2-2.4,6.4-3.3c1.9-0.8,3.5-1.9,5.7-1c1.7,0.7,2.8,2.2,3,4c0.1,1.1-0.2,2.2-0.8,3.1    c-0.6,0.9-1.4,1.3-2.2,1.9c-1.8,1.3-3.5,2.6-5.4,3.7c-5.6,3.3-11.6,6.1-17.3,9.3c3.4,5.8,7.3,11.4,11.3,16.8    c4.1,5.4,8.4,10.4,12.8,15.6c4.4,5.2,9.4,9.9,14.3,14.5c4.7,4.4,9.7,8.5,14.8,12.4c5.4,4.1,10.9,8.1,16.7,11.6    c0.7,0.4,1.4,0.9,2.2,1.3c2.9-5.1,5.5-10.5,8.4-15.6c1.2-2.1,2.4-4.1,3.8-6c1.2-1.6,2.1-3.4,4.2-3.9c1.6-0.4,3.4,0.1,4.5,1.3    c1.6,1.9,1.6,4,0.5,6.1c-1,1.9-1.7,3.9-2.8,5.8c-3.2,5.8-7.1,11.3-10.4,17.1c11.5,6.3,23.6,11.6,36,15.7c12.8,4.2,26,7.2,39.3,8.9    c7.7,1,15.4,1.6,23.1,1.7c0-7.1-0.7-14.1-0.5-21.2c0-1.5,0.1-2.9,0.4-4.4c0.2-1.1,0-2.1,0.5-3.1c0.7-1.6,2.3-2.8,4.1-2.9    c0.2,0,0.5,0,0.7,0c1.7,0.1,3.4,1.3,4.1,2.9c0.4,1,0.3,2.1,0.5,3.1c0.2,1.5,0.3,2.9,0.4,4.4c0.2,7.1-0.5,14.1-0.5,21.2    c13.6-0.3,27.2-1.9,40.6-4.7c13-2.8,25.8-6.8,38-12c6.8-2.9,13.4-6.1,19.9-9.6c-3-5.2-6.4-10.1-9.4-15.3c-1.2-2.1-2.4-4.2-3.3-6.4    c-0.8-1.9-1.9-3.5-1-5.7c0.6-1.6,2-2.7,3.7-3c1.1-0.2,2.3,0.1,3.3,0.7c0.9,0.6,1.3,1.3,1.9,2.2c1.2,1.8,2.6,3.4,3.7,5.3    c3.4,5.7,6.1,11.7,9.4,17.4c5.8-3.5,11.3-7.4,16.7-11.3c5.4-3.9,10.4-8.2,15.3-12.6c5.1-4.5,9.9-9.4,14.6-14.5    c4.5-4.8,8.7-9.9,12.7-15.2c4-5.3,7.8-10.8,11.4-16.5c0.4-0.7,0.9-1.4,1.3-2.2c-5.1-3-10.5-5.5-15.6-8.4c-2.1-1.2-4.2-2.4-6-3.9    c-1.5-1.2-3.3-2.1-3.8-4.1c-0.4-1.7,0.2-3.4,1.4-4.6c1.8-1.7,4.1-1.5,6.1-0.4c1.9,1,3.9,1.7,5.8,2.8c5.8,3.2,11.3,7.1,17.1,10.4    c6.3-11.5,11.6-23.6,15.7-36c4.2-12.8,7.2-26,8.9-39.3c1-7.7,1.6-15.4,1.7-23.1c-5.9,0-11.8,0.4-17.7,0.5c-2.5,0-5.1,0-7.6-0.4    c-0.9-0.1-1.8-0.1-2.6-0.3c-1.1-0.3-2.1-0.9-2.8-1.9c-0.9-1.2-1.1-2.7-0.7-4.1c0.7-2.3,2.6-3.4,4.9-3.5c1,0,1.9-0.2,2.9-0.3    c1.3-0.1,2.6-0.2,3.8-0.2c6.6-0.1,13.2,0.5,19.8,0.5c-0.3-13.6-1.9-27.2-4.8-40.5c-2.8-13-6.8-25.8-12-38    c-2.9-6.8-6.1-13.4-9.6-19.9c-5.2,3-10.2,6.4-15.4,9.5c-2.1,1.2-4.2,2.4-6.4,3.2c-0.8,0.3-1.5,0.8-2.3,1c-1.1,0.4-2.4,0.3-3.5-0.1    c-1.5-0.6-2.6-2-2.8-3.6c-0.2-1.1,0.1-2.3,0.6-3.3c0.5-0.9,1.3-1.3,2.2-1.9c1.8-1.2,3.4-2.5,5.2-3.6c5.7-3.4,11.8-6.2,17.5-9.5    c-8-10.9-16.2-21.7-25.2-31.8c-8.4-9.4-17.5-18.1-27.3-26C380.8,96.8,374.2,92,367.5,87.5 M329,58.9c7.2,2.4,14.1,5.4,21.1,8.4    c7.2,3.2,14.1,7.1,20.9,11.1c6.5,3.8,12.9,8,18.8,12.6c6,4.6,11.9,9.2,17.4,14.4c4.2,3.9,8.3,7.9,12.1,11.9c0.3,0.3,0.7,0.7,1,1.1    c10.6-11.9,16-27.7,14-43.6c-2.3-18.4-13.8-34.9-30.5-43.1c-10.3-5.1-21.9-6.6-33.1-4.9c-9.2,1.4-17.5,5.3-25,10.8    c-6.7,5-12,11.9-15.8,19.3C329.7,57.5,329.3,58.2,329,58.9z M339.5,239.5c0.7,2,0.9,4.3,1.2,6.4c0.7,5.2,1,10.5,0.8,15.8    c-0.7,15.6-6,30.8-16.6,42.4c-0.8,0.8-1.5,1.6-2.3,2.4c-0.8,0.8-1.9,1.6-2.6,2.5c-1.3,1.6-1.3,4-0.1,5.7c1.2,1.7,3.5,2.4,5.5,1.7    c2-0.7,3.7-2.9,5.1-4.3c6-6.2,10.8-13.4,14.2-21.3c5.3-12.5,7.1-26.3,6.1-39.7c-0.3-3.9-0.8-7.7-1.5-11.5    c-0.2-0.8-0.3-1.5-0.5-2.2c-0.9-3.1-4.5-4.8-7.3-2.9C339.8,235.5,339,237.6,339.5,239.5C339.5,239.6,338.8,236.9,339.5,239.5z     M263.6,319.9c-3.3,3.6,0.7,9.4,5.2,7.7c1.3-0.5,2.2-1.6,3-2.6c3.3-3.6,6.4-7.5,9.1-11.6c3.7-5.4,7.1-11.3,8.9-17.7    c0.8-2.9,1.3-5.9,1-9c-0.1-1.4-0.4-2.8-1-4.2c-0.7-1.7-1.8-3.2-2.6-4.9c-2.5-5.4-0.5-11,3.8-14.8c1.6-1.4,2.3-3.5,1.5-5.5    c-0.8-2-2.8-3.2-4.9-3c-1.8,0.2-3,1.4-4.2,2.6c-4.1,4.2-7,9.7-7,15.6c0,4.5,1.7,8.6,4,12.4c1.2,2,1.3,4.4,0.9,6.7    c-1.1,6-4.8,11.6-8.3,16.5c-2.8,3.9-5.8,7.5-9,11C264,319.5,263.8,319.7,263.6,319.9C261.9,321.8,263.7,319.8,263.6,319.9z     M241.3,293.7c3.4,4.5,4.4,10.6,5,16.1c0.3,2.5,0.4,5,0.4,7.4c0,1.1-0.1,2.2,0.5,3.3c0.6,1.1,1.6,2,2.8,2.4c2.5,0.8,5.2-0.7,6-3.2    c0.6-1.9,0.3-4.3,0.2-6.3c-0.3-5.9-1.1-11.9-3.1-17.5c-0.6-1.6-1.2-3.2-2-4.8c-0.3-0.6-0.5-0.9-0.5-1.6c0-0.6,0.1-1.1,0.2-1.7    c0.2-2.1,0.6-4.6,1.7-6.4c0.6-0.9,1.2-1.2,2.2-1.5c1.1-0.4,2.2-0.9,3-1.7c1.4-1.5,1.3-3.8,0.6-5.7c-0.9-2.2-3-3.6-4.7-5    c-1.3-1.1-2.5-2.2-3.6-3.4c-3.1-3.4-5.3-7.4-6.4-11.9c-0.3-1.5-0.6-2.9-0.7-4.4c-0.1-1.5,0.1-3.1-0.2-4.6    c-0.3-1.5-1.2-2.5-2.4-3.4c-1.4-0.9-2.8-1.9-4.1-3c-2.7-2.2-6.1-5.4-6.2-9.1c0-0.5,0.1-1.1,0.2-1.6c3.5,6.8,10,11.2,17,13.9    c7.9,3,16.4,4.1,24.8,4.4c8.2,0.3,16.5-0.2,24.7-1.1c5.4-0.6,10.8-1.4,16.2-2.5c0.8-0.2,1.7-0.3,2.6-0.5c2.9-0.8,4.4-4,3.1-6.7    c-1-2-3.2-3-5.4-2.6c-2.9,0.6-5.8,1.2-8.7,1.6c-6.3,1-12.7,1.8-19.1,2.2c-7.4,0.5-14.9,0.5-22.3-0.5c-6.5-0.9-13.2-2.5-18.6-6.4    c-5.1-3.7-7.8-9.3-7.8-15.6c0-8.1,2.5-16.3,9-21.4c5.3-4.2,12.2-5.9,18.8-6.4c5.4-0.4,10.9,0,16.2,0.9c2.1,0.4,4.1,0.9,6.3,0.6    c4.6-0.8,9.2-2.8,12.7-6c6.2-5.8,7.1-14.4,5.5-22.4c-0.4-2.2-1.4-4.5-1.7-6.7c0-0.2-0.2-0.3,0-0.4c0.2-0.1,0.9,0.3,1.1,0.4    c1.4,0.6,2.8,1.4,4.2,2.1c6.1,3.3,11.7,8.3,15.7,14c2,2.7,3.7,5.8,4.3,9.2c0.1,0.7,0.2,1.4,0.1,2.1c0,0.4,0,2-0.4,2.2    c-0.2,0.2-1.7-0.2-2-0.2c-0.7-0.1-1.4-0.1-2.1-0.1c-6,0-11.7,2.2-16.4,5.9c-5.2,4-8.6,9.7-13.7,13.9c-4.2,3.4-9,6-14,7.8    c-7.4,2.6-15.3,3.7-23.1,3.4c-1.7-0.1-3.8-0.6-5.4,0c-2.8,1-4.1,4.3-2.6,6.9c0.8,1.4,2.2,2.2,3.8,2.4c5.1,0.6,10.3,0.3,15.4-0.3    c9.7-1.2,19.2-4.1,27.4-9.4c5-3.2,9.2-7.2,12.9-11.8c3.9-4.8,9.2-8.9,15.6-9c5.1-0.1,10,2.3,14,5.4c5.1,4,9.1,9.2,12.4,14.8    c7.3,12.4,11,27,11.4,41.3c0.3,10.6-1.2,21.3-4.7,31.4c-2.9,8.6-7.3,16.7-12.7,24c-6.2,8.3-13.8,15.5-22.2,21.5    c-10.2,7.3-21.5,12.9-33.2,17.2c-3.4,1.2-6.8,2.4-10.2,3.4c-1,0.3-2.2,0.9-3.3,0.8c-0.4,0-0.9-0.1-1.3-0.1    c-2.9-0.3-5.8-0.4-8.7-0.5c-7.9-0.3-16-0.2-23.8,1.4c-5.6,1.1-13.5,3.5-14.8,10c-0.1,0.7-0.2,1.4-0.1,2.2c0,0.8,0.2,1.4-0.3,2.1    c-1.5,2.3-4.6,3.8-6.9,5.1c-6.5,3.5-13.8,5.5-21,6.4c-11.9,1.4-24.6-0.8-33.8-8.8c-9.3-8-13.7-20.7-14.8-32.6    c-0.9-9.4,0.9-18.9,5.9-27c3.8-6.2,9.1-11.3,15.1-15.3c2.2-1.5,4.5-2.8,6.9-4c0.8-0.4,1.7-0.8,2.6-1.2c0.4-0.2,0.7-0.3,1.1-0.3    c0.8,0.1,1.7,0.5,2.4,0.8c4.9,1.5,10,2.6,15.1,3.1c2.7,0.2,5.4,0.2,8.1-0.2c2.2-0.4,4-1.2,6-2.3c1.8-1,4.9-2.5,7-1.4    c0.4,0.2,0.6,0.5,0.8,0.9c0.4,0.7,0.9,1.3,1.4,1.9c1,1,2.3,1.8,3.6,2.4c2.9,1.2,6.2,1.4,9.3,1.1c1-0.1,1.9-0.4,2.9-0.6    C239.5,292.4,240.3,292.6,241.3,293.7z M131.7,26c-15.8,0-31.5,7-41.8,19.1C77.7,59.6,73.4,79.7,79,97.8    c2.4,7.7,6.5,14.6,11.9,20.5c5-5.4,10.4-10.3,15.8-15.3c5.1-4.7,10.7-9.1,16.4-13.2c5.6-4,11.4-7.8,17.2-11.4    c6.1-3.8,12.5-7,18.9-10.1c6.7-3.2,13.6-6,20.5-8.6c0.8-0.3,1.7-0.6,2.5-0.9c-1.6-3.5-3.5-7-5.8-10.1c-2.8-3.8-6-7.2-9.6-10.2    c-2.8-2.4-6.1-4.5-9.4-6.3c-4.3-2.3-8.9-3.9-13.7-5c-3.6-0.9-7.3-1.2-10.9-1.3C132.5,26,132.1,25.9,131.7,26z"/>
</g>
</g>
<g id="Layer_1_1_"/>
</svg>