<?xml version="1.0" encoding="iso-8859-1"?>
<!-- Uploaded to: SVG Repo, www.svgrepo.com, Generator: SVG Repo Mixer Tools -->
<svg fill="#000000" height="800px" width="800px" version="1.1" id="Capa_1" xmlns="http://www.w3.org/2000/svg" xmlns:xlink="http://www.w3.org/1999/xlink" 
	 viewBox="0 0 612 612" xml:space="preserve">
<g>
	<g>
		<path d="M306,499.481c137.928,0,249.741-111.815,249.741-249.741C555.742,111.813,443.928,0,306,0
			C168.078,0,56.259,111.813,56.259,249.741C56.259,387.666,168.078,499.481,306,499.481z M306,138.576
			c61.395,0,111.165,49.771,111.165,111.165S367.395,360.907,306,360.907s-111.165-49.773-111.165-111.167
			C194.837,188.347,244.605,138.576,306,138.576z"/>
		<path d="M306,321.949c39.879,0,72.205-32.331,72.205-72.208c0-39.879-32.327-72.21-72.205-72.21s-72.208,32.331-72.208,72.21
			C233.792,289.62,266.123,321.949,306,321.949z M260.435,233.339c0,0,5.615,17.975,24.224,36.584
			c18.61,18.61,36.58,24.228,36.58,24.228C286.41,309.178,244.842,268.419,260.435,233.339z"/>
		<path d="M447.066,489.484c-41.388,24.445-89.611,38.501-141.064,38.501c-51.451,0-99.668-14.056-141.06-38.501
			c-34.414,13.002-55.614,30.747-55.614,50.309c0,39.883,88.054,72.206,196.674,72.206s196.674-32.325,196.674-72.206
			C502.676,520.231,481.479,502.487,447.066,489.484z"/>
	</g>
</g>
</svg>